# xmcd CD database file
#
# Track frame offsets:
#	150
#	19092
#	34340
#	53395
#	72872
#	86077
#	99500
#	115797
#	130107
#	147135
#	159165
#	185152
#	197945
#	211880
#	234135
#	258095
#	281355
#	298070
#	312145
#	329632
#
# Disc length: 4642 seconds
#
# Revision: 0
# Processed by: cddbd v1.5.1PL0 Copyright (c) Steve Scherf et al.
# Submitted via: CDex 1.60beta1
#
DISCID=19122014
DTITLE=Art Tatum - The Complete Pablo Solo Masterpieces Disc 7
DYEAR=1900
DGENRE=Jazz
TTITLE0=If I Had You
TTITLE1='Sposin'
TTITLE2=Don'T You Worry 'Bout Me
TTITLE3=Prisoner Of Love
TTITLE4=Moonglow
TTITLE5=I Won't Dance
TTITLE6=I Can't Give You Anything But Love
TTITLE7=Lullaby Of Rhythm
TTITLE8=Out Of Nowhere
TTITLE9=It's Only A Paper Moon
TTITLE10=Everything I Have Is Yours
TTITLE11=I Only Have Eyes For You
TTITLE12=On The Sunny Side Of The Street
TTITLE13=Do Nothing Till You Hear From Me
TTITLE14=So Beats My Heart For You
TTITLE15=Please Be Kind
TTITLE16=Someone To Watch Over Me
TTITLE17=Begin The Beguine
TTITLE18=Willow Weep For Me
TTITLE19=Humoresque
EXTD=
EXTT0=
EXTT1=
EXTT2=
EXTT3=
EXTT4=
EXTT5=
EXTT6=
EXTT7=
EXTT8=
EXTT9=
EXTT10=
EXTT11=
EXTT12=
EXTT13=
EXTT14=
EXTT15=
EXTT16=
EXTT17=
EXTT18=
EXTT19=
PLAYORDER=
